<svg height='300px' width='300px'  fill="#000000" xmlns="http://www.w3.org/2000/svg" xmlns:xlink="http://www.w3.org/1999/xlink" version="1.1" x="0px" y="0px" viewBox="0 0 100 100" style="enable-background:new 0 0 100 100;" xml:space="preserve"><rect x="65.6" y="82.7" width="20.6" height="3.5"></rect><path d="M59.9,93.8c-12.6,2.8-26.3-0.3-36.9-9.4c0-3.7,1.3-9.5,9.6-11.7c1.4-0.2,12.4-2.1,13.1-10c0.2-1,0.1-3.3-2.8-7.9  c-4.2-6.2-6.8-16.4-3.4-22.8c2-3.7,5.8-5.6,11.2-5.6s9.2,1.9,11.2,5.6c3.4,6.4,0.8,16.5-3.5,22.8c-2.8,4.5-2.9,6.8-2.8,7.8  c0.4,4.2,3.7,6.7,7,8.2c1-1,2.2-1.8,3.4-2.6c-2.8-0.9-6.5-2.7-6.7-6c0-0.1,0-0.1,0-0.2c0-0.2,0.1-1.7,2.2-5.2  c4.9-7.3,7.7-18.7,3.6-26.5c-1.8-3.4-5.8-7.5-14.4-7.5S38,26.9,36.2,30.4c-4.1,7.8-1.3,19.2,3.6,26.4c2.2,3.5,2.3,5.1,2.3,5.3  c0,0.1,0,0.1,0,0.2c-0.4,5.3-10,6.8-10.1,6.8c-0.1,0-0.1,0-0.2,0c-8.6,2.3-11.3,7.9-12.1,12.2C11,72.9,6.1,61.5,6.1,49.4  c0-24.5,20-44.5,44.5-44.5s44.5,20,44.5,44.5c0,8.1-2.2,15.8-6.1,22.5c0.9,1,1.6,2.1,2.3,3.2c4.8-7.6,7.5-16.5,7.5-25.8  c0-26.5-21.6-48.1-48.1-48.1S2.5,22.8,2.5,49.4c0,13.9,5.9,26.9,16.3,36.1c0,0,0,0.1,0.1,0.1c9,8.6,20.5,12.8,31.9,12.8  c3.9,0,7.8-0.5,11.6-1.5C61.4,95.9,60.6,94.9,59.9,93.8z"></path><rect x="65.6" y="90.3" width="20.6" height="3.5"></rect><rect x="65.6" y="75.1" width="20.6" height="3.5"></rect></svg>